<svg width="512" height="512" viewBox="0 0 135.5 135.5" xmlns="http://www.w3.org/2000/svg"><path fill="currentColor" d="M65.4 4.2C43.3 4.5 26 19.6 26 40a43 43 0 0 0 2 13.3l2 4.8-7.2 5.5A32.6 32.6 0 0 0 8.5 92.3c0 5.3 1 11.9 2.1 14.6 8.2 19.4 33 28.3 61.6 22.2a81.2 81.2 0 0 0 15.8-5l6-3 7.6 5c4.2 2.8 8.7 5.1 10 5.1 5.1 0 12.5-8.2 15.1-16.9.9-2.7-.1-4.4-5.7-9.5l-6.8-6.2 2.4-5.9c3.3-8.2 5.3-23.8 3.6-28.1-1.8-4.9-10.2-8.1-18-7-8.2 1.2-11.9 6-11.9 15.2 0 3.7-.5 7.2-1.1 7.5-1.8 1.2-21.8-16.2-26.6-23-5.4-7.7-5.8-15.2-1-19.1 4.5-3.6 8.2-3.4 17 1 4 2 8.5 3.5 9.8 3.2 1.4-.3 4.6-3.2 7.2-6.6C107.4 20.4 97 7.2 71.1 4.5l-5.7-.3ZM45.8 78.6h.2c.6.3 6.8 5.9 13.6 12.5 9.3 8.9 12 12.2 10.5 13.1-3.2 2-15.9 1.4-21-1a16.7 16.7 0 0 1-8.8-13.4c0-3.7 3.8-11.3 5.5-11.2z"/></svg>
