<svg width="512" height="275.4" viewBox="0 0 135.5 72.9" xmlns="http://www.w3.org/2000/svg"><path  fill="currentColor" d="M126.2 51c-3.8 0-7.6 1.3-9.6 3.6a11.4 11.4 0 0 0-1.7 11.7c2.3 5.1 8.3 7.5 15.2 6.2 2-.3 3.8-1 4.2-1.7.7-1.1-.5-4.8-1.6-4.8l-2.3.6c-3 1.2-6.8.7-7.7-1-.3-.6-.2-.6 2.4-.6 3.3 0 6.6-.9 8.2-2.2 2.8-2.4 3-7 .2-9.5a11 11 0 0 0-7.3-2.3zm-.2 5.5c1.5 0 2.5 1.3 1.7 2.5-.4.7-2.6 1.4-4.3 1.4-1.6 0-1.7 0-1.5-.7.6-2 2.2-3.2 4-3.2zM107.4 72c3.3-1.3 5-4.5 4.2-7.6-.7-2.6-3-4.3-7-5.5-1-.3-2-.7-2.4-1-.6-.3-.6-.5-.2-1 .6-.7 3-.5 5.2.5.9.4 1.9.6 2.3.5.7-.1 1.5-1.5 1.9-3.1.5-2.2-2.7-3.7-8-3.8a9.7 9.7 0 0 0-7.6 2.7 7.6 7.6 0 0 0-.4 7.3c.7 1.3 2.5 2.3 5.8 3.4 3.3 1 4 1.7 3 2.5-1 .6-3.5.3-6.3-.8-2-.8-2.2-.8-2.8-.3-1 1-1.8 3.3-1.4 4.2 1.1 2.4 9.9 3.7 13.7 2zM82 50.9c-4.5 0-8.9 2.3-10.8 6-.8 1.5-.9 2-.9 5 0 2.9.1 3.4.9 5 2.2 4 6.5 6.1 12.4 5.8 1.6 0 3.6-.3 4.5-.6 2.8-.9 3.4-2.4 1.7-5.1-.7-1.2-1.1-1.2-3.9-.2-1.9.7-4.9.5-6.1-.4-1.6-1.1-1.3-1.3 2.3-1.5 3.2-.1 3.7-.2 5.7-1.2 2.7-1.4 3.7-2.9 3.7-5.6 0-3.5-2-5.8-6-6.8-1.1-.3-2.3-.4-3.4-.4zm0 5.6c1 0 1.4.1 1.8.8 1 1.6-1 3-4.1 3-1.5 0-1.7 0-1.7-.6 0-.4.6-1.3 1.3-2 1-1 1.5-1.2 2.6-1.2zm-23.6-5.6c-4.6 0-9 2.3-10.9 6-.8 1.5-.8 2-.8 5 0 2.9 0 3.4.8 5 2.2 4 6.6 6.1 12.5 5.8 1.5 0 3.5-.3 4.5-.6 2.8-.9 3.3-2.4 1.7-5.1-.8-1.2-1.2-1.2-4-.2-1.9.7-4.9.5-6-.4-1.6-1.1-1.4-1.3 2.3-1.5 3.1-.1 3.7-.2 5.7-1.2 2.7-1.4 3.6-2.9 3.6-5.6 0-3.5-2-5.8-6-6.8-1-.3-2.2-.4-3.4-.4zm-.1 5.6c1 0 1.4.1 1.8.8 1.1 1.6-.9 3-4 3-1.5 0-1.7 0-1.7-.6 0-.4.6-1.3 1.3-2 1-1 1.4-1.2 2.6-1.2zM27.7 72.4a4 4 0 0 0 1.7-.9c.6-.6.7-1 .7-6.4 0-3.2.1-6 .3-6.4.4-.8 2.4-1.3 3.5-.9 1.6.6 1.7 1 1.7 7 0 3.3.2 5.8.4 6.2 1 2 6.4 2 7.5 0 .2-.4.4-3.1.4-7 0-5.4-.1-6.4-.7-8-1.7-4.4-7-6.3-11.5-4.2l-1.5.7-.1-5c0-4.5 0-4.9-.7-5.5-1.4-1.2-5.1-1.2-6.7 0l-.7.6v14.1a57 57 0 0 0 .5 14.7c.8 1 3.1 1.4 5.2 1zm-12.3 0c2.7-.7 4-2 3.7-3.7-.3-1.5-1.1-3-2-3.5-.3-.3-1-.1-2.8.4-2.6.9-4 .7-5.3-.8-.9-1-1.2-3.8-.6-5 1.1-2 3.8-2.7 6.3-1.6 1.7.9 2.6.6 3.4-1 .6-.9.8-1.7.7-2.7 0-1.3-.2-1.6-1.2-2.2-2.4-1.6-7.3-1.8-11-.4A10 10 0 0 0 1 57c-.9 1.7-1 2.3-1 5 0 3.4.7 5.4 2.7 7.5 3 3 8 4.2 12.7 3zM121.3 2.6c-5.1 0-9 3.5-9 8.2 0 1 .1 2.5.4 3l.4 1.2-1.6 1.3a7.5 7.5 0 0 0-3.3 6.6c0 1.2.2 2.7.5 3.3 1.8 4.5 7.6 6.5 14.1 5.1 1.3-.2 2.9-.8 3.7-1.1l1.3-.7 1.8 1.1a7 7 0 0 0 2.3 1.2c1.2 0 2.9-1.9 3.5-3.9.2-.6 0-1-1.4-2.2l-1.5-1.4.5-1.4a14 14 0 0 0 .9-6.4c-.4-1.1-2.4-1.9-4.2-1.6-1.8.3-2.7 1.3-2.7 3.5 0 .8-.1 1.6-.3 1.7-.4.3-5-3.7-6-5.3-1.3-1.8-1.4-3.5-.3-4.4 1-.8 1.9-.8 3.9.2 1 .5 2 .8 2.3.8.3 0 1-.8 1.6-1.6 2.7-3.5.3-6.5-5.6-7.1l-1.3-.1zm-4.5 17.1a43 43 0 0 1 3.1 2.9c2.2 2 2.8 2.8 2.5 3-.8.5-3.7.3-4.9-.3-1.1-.5-2-1.9-2-3 0-.9.9-2.6 1.3-2.6zM75 31.3c1.8-.4 2.4-1.2 2.4-3.7 0-1.9.1-2.3.8-3.1l1-1L81 27c1 1.8 2 3.5 2.5 3.8 1 .7 4.2 1 6 .5 2.3-.7 2.2-1.3-1.2-7a23.5 23.5 0 0 1-2.8-5.3l2.5-3.4a14 14 0 0 0 2.2-3.7c0-1.5-3.7-2.2-6.3-1.1-1 .4-1.8 1.2-3.8 3.8l-2.6 3.3-.1-8.2c-.2-7.8-.2-8.4-.8-8.8-1.5-1.1-5.1-1-6.5.1l-.8.6v14.1c0 11.5.1 14.2.5 14.7.8 1 3.2 1.4 5.2 1zm-12.2 0c2.6-.7 3.9-2 3.6-3.7-.3-1.4-1.1-3-1.9-3.5-.4-.2-1.1-.1-2.9.4-2.6.9-3.9.7-5.3-.8-.9-1-1.2-3.8-.5-5 1-2 3.7-2.7 6.2-1.5 1.7.8 2.6.5 3.5-1 .5-1 .7-1.7.6-2.8 0-1.2-.2-1.6-1.1-2.2-2.4-1.6-7.4-1.8-11-.4a11 11 0 0 0-5.8 5.2c-.8 1.6-.9 2.2-.9 4.8 0 3.5.8 5.4 2.7 7.5 3 3 8 4.2 12.8 3zM34.3 9.9a22 22 0 0 0-5.6.7c-3.3 1-4 2.6-2.2 5.4.7 1.2.7 1.2 4 0 2.5-.9 4.2-.7 5.4.5.5.4.8.9.7 1L34 18c-3.4.5-4.6.9-6.5 2-2 1.5-3 3.2-3 5.5 0 3 1.4 5 4 6 1.6.5 5 .2 6.8-.7 1.5-.8 1.6-.8 2.4-.2 2 1.5 5.8.9 6.5-1 .2-.6.3-3.2.2-7.2 0-6.7-.4-7.9-2.1-9.8-1.7-1.8-4.7-2.7-8-2.7Zm2.3 12.3v1.3c0 1.2-.1 1.5-1 2-1.2.8-2.7.9-3.7.4-.3-.2-.5-.8-.5-1.3 0-1.2 1.2-2 3.6-2.2zM6.4 31.1c.5-.2 1.1-.6 1.3-1 .2-.3.3-3.1.3-6.3 0-5.5 0-5.7.8-6.4.4-.3 1-.7 1.5-.8 1-.2 2.6.3 3 1 .2.4.3 2.9.3 5.6l.2 6c.3 1.5 1.5 2.1 4.1 2.1 2 0 2.4-.1 3.1-.8l.8-.8v-6.6c0-8.7-.5-10.3-4-12.2a9.5 9.5 0 0 0-8-.2l-1.6.7S8 9.2 8 6.5c0-4.4 0-5-.6-5.5C6.2-.3 2.2-.3.8 1c-.6.6-.6.8-.6 14.7 0 13.8 0 14.2.6 14.7 1.2 1 3.7 1.4 5.6.7z"/></svg>
